%TF.GenerationSoftware,KiCad,Pcbnew,10.0.5*%
%TF.CreationDate,2026-08-10T15:38:10+02:00*%
%TF.ProjectId,chaya2mqtt-s2,63686179-6132-46d7-9174-742d73322e6b,rev?*%
%TF.SameCoordinates,Original*%
%TF.FileFunction,Paste,Bot*%
%TF.FilePolarity,Positive*%
%FSLAX46Y46*%
G04 Gerber Fmt 4.6, Leading zero omitted, Abs format (unit mm)*
G04 Created by KiCad (PCBNEW 10.0.5) date 2026-08-10 15:38:10*
%MOMM*%
%LPD*%
G01*
G04 APERTURE LIST*
G04 Aperture macros list*
%AMRoundRect*
0 Rectangle with rounded corners*
0 $1 Rounding radius*
0 $2 $3 $4 $5 $6 $7 $8 $9 X,Y pos of 4 corners*
0 Add a 4 corners polygon primitive as box body*
4,1,4,$2,$3,$4,$5,$6,$7,$8,$9,$2,$3,0*
0 Add four circle primitives for the rounded corners*
1,1,$1+$1,$2,$3*
1,1,$1+$1,$4,$5*
1,1,$1+$1,$6,$7*
1,1,$1+$1,$8,$9*
0 Add four rect primitives between the rounded corners*
20,1,$1+$1,$2,$3,$4,$5,0*
20,1,$1+$1,$4,$5,$6,$7,0*
20,1,$1+$1,$6,$7,$8,$9,0*
20,1,$1+$1,$8,$9,$2,$3,0*%
G04 Aperture macros list end*
%ADD10RoundRect,0.135000X0.135000X0.185000X-0.135000X0.185000X-0.135000X-0.185000X0.135000X-0.185000X0*%
%ADD11RoundRect,0.250000X0.250000X0.475000X-0.250000X0.475000X-0.250000X-0.475000X0.250000X-0.475000X0*%
%ADD12RoundRect,0.250000X0.375000X0.625000X-0.375000X0.625000X-0.375000X-0.625000X0.375000X-0.625000X0*%
%ADD13RoundRect,0.150000X0.150000X0.575000X-0.150000X0.575000X-0.150000X-0.575000X0.150000X-0.575000X0*%
%ADD14RoundRect,0.075000X0.075000X0.650000X-0.075000X0.650000X-0.075000X-0.650000X0.075000X-0.650000X0*%
%ADD15RoundRect,0.150000X0.512500X0.150000X-0.512500X0.150000X-0.512500X-0.150000X0.512500X-0.150000X0*%
%ADD16RoundRect,0.150000X0.587500X0.150000X-0.587500X0.150000X-0.587500X-0.150000X0.587500X-0.150000X0*%
%ADD17RoundRect,0.150000X0.150000X0.625000X-0.150000X0.625000X-0.150000X-0.625000X0.150000X-0.625000X0*%
%ADD18RoundRect,0.250000X0.350000X0.650000X-0.350000X0.650000X-0.350000X-0.650000X0.350000X-0.650000X0*%
%ADD19RoundRect,0.140000X0.140000X0.170000X-0.140000X0.170000X-0.140000X-0.170000X0.140000X-0.170000X0*%
G04 APERTURE END LIST*
D10*
%TO.C,R9*%
X110510000Y-129000000D03*
X109490000Y-129000000D03*
%TD*%
D11*
%TO.C,C1*%
X131950000Y-142000000D03*
X130050000Y-142000000D03*
%TD*%
D10*
%TO.C,R8*%
X107510000Y-129000000D03*
X106490000Y-129000000D03*
%TD*%
D12*
%TO.C,F1*%
X122400000Y-142000000D03*
X119600000Y-142000000D03*
%TD*%
D13*
%TO.C,J1*%
X114250000Y-135955000D03*
X113450000Y-135955000D03*
D14*
X112250000Y-135955000D03*
X111250000Y-135955000D03*
X110750000Y-135955000D03*
X109750000Y-135955000D03*
D13*
X108550000Y-135955000D03*
X107750000Y-135955000D03*
X107750000Y-135955000D03*
X108550000Y-135955000D03*
D14*
X109250000Y-135955000D03*
X110250000Y-135955000D03*
X111750000Y-135955000D03*
X112750000Y-135955000D03*
D13*
X113450000Y-135955000D03*
X114250000Y-135955000D03*
%TD*%
D10*
%TO.C,R7*%
X109510000Y-124000000D03*
X108490000Y-124000000D03*
%TD*%
%TO.C,R3*%
X124510000Y-133000000D03*
X123490000Y-133000000D03*
%TD*%
D15*
%TO.C,U2*%
X120137500Y-132050000D03*
X120137500Y-133000000D03*
X120137500Y-133950000D03*
X117862500Y-133950000D03*
X117862500Y-133000000D03*
X117862500Y-132050000D03*
%TD*%
D10*
%TO.C,R4*%
X124510000Y-135000000D03*
X123490000Y-135000000D03*
%TD*%
D16*
%TO.C,Q1*%
X103937500Y-129050000D03*
X103937500Y-130950000D03*
X102062500Y-130000000D03*
%TD*%
D15*
%TO.C,U3*%
X137137500Y-138050000D03*
X137137500Y-139000000D03*
X137137500Y-139950000D03*
X134862500Y-139950000D03*
X134862500Y-138050000D03*
%TD*%
D17*
%TO.C,J3*%
X105500000Y-122000000D03*
X104500000Y-122000000D03*
X103500000Y-122000000D03*
X102500000Y-122000000D03*
D18*
X106800000Y-125875000D03*
X101200000Y-125875000D03*
%TD*%
D11*
%TO.C,C3*%
X141950000Y-139000000D03*
X140050000Y-139000000D03*
%TD*%
D10*
%TO.C,R1*%
X104010000Y-136000000D03*
X102990000Y-136000000D03*
%TD*%
D19*
%TO.C,C2*%
X131480000Y-139000000D03*
X130520000Y-139000000D03*
%TD*%
D10*
%TO.C,R2*%
X104010000Y-138000000D03*
X102990000Y-138000000D03*
%TD*%
D19*
%TO.C,C4*%
X144480000Y-139000000D03*
X143520000Y-139000000D03*
%TD*%
M02*
