%TF.GenerationSoftware,KiCad,Pcbnew,10.0.5*%
%TF.CreationDate,2026-08-10T15:38:10+02:00*%
%TF.ProjectId,chaya2mqtt-s2,63686179-6132-46d7-9174-742d73322e6b,rev?*%
%TF.SameCoordinates,Original*%
%TF.FileFunction,Legend,Top*%
%TF.FilePolarity,Positive*%
%FSLAX46Y46*%
G04 Gerber Fmt 4.6, Leading zero omitted, Abs format (unit mm)*
G04 Created by KiCad (PCBNEW 10.0.5) date 2026-08-10 15:38:10*
%MOMM*%
%LPD*%
G01*
G04 APERTURE LIST*
G04 Aperture macros list*
%AMRoundRect*
0 Rectangle with rounded corners*
0 $1 Rounding radius*
0 $2 $3 $4 $5 $6 $7 $8 $9 X,Y pos of 4 corners*
0 Add a 4 corners polygon primitive as box body*
4,1,4,$2,$3,$4,$5,$6,$7,$8,$9,$2,$3,0*
0 Add four circle primitives for the rounded corners*
1,1,$1+$1,$2,$3*
1,1,$1+$1,$4,$5*
1,1,$1+$1,$6,$7*
1,1,$1+$1,$8,$9*
0 Add four rect primitives between the rounded corners*
20,1,$1+$1,$2,$3,$4,$5,0*
20,1,$1+$1,$4,$5,$6,$7,0*
20,1,$1+$1,$6,$7,$8,$9,0*
20,1,$1+$1,$8,$9,$2,$3,0*%
%AMOutline5P*
0 Free polygon, 5 corners , with rotation*
0 The origin of the aperture is its center*
0 number of corners: always 5*
0 $1 to $10 corner X, Y*
0 $11 Rotation angle, in degrees counterclockwise*
0 create outline with 5 corners*
4,1,5,$1,$2,$3,$4,$5,$6,$7,$8,$9,$10,$1,$2,$11*%
%AMOutline6P*
0 Free polygon, 6 corners , with rotation*
0 The origin of the aperture is its center*
0 number of corners: always 6*
0 $1 to $12 corner X, Y*
0 $13 Rotation angle, in degrees counterclockwise*
0 create outline with 6 corners*
4,1,6,$1,$2,$3,$4,$5,$6,$7,$8,$9,$10,$11,$12,$1,$2,$13*%
%AMOutline7P*
0 Free polygon, 7 corners , with rotation*
0 The origin of the aperture is its center*
0 number of corners: always 7*
0 $1 to $14 corner X, Y*
0 $15 Rotation angle, in degrees counterclockwise*
0 create outline with 7 corners*
4,1,7,$1,$2,$3,$4,$5,$6,$7,$8,$9,$10,$11,$12,$13,$14,$1,$2,$15*%
%AMOutline8P*
0 Free polygon, 8 corners , with rotation*
0 The origin of the aperture is its center*
0 number of corners: always 8*
0 $1 to $16 corner X, Y*
0 $17 Rotation angle, in degrees counterclockwise*
0 create outline with 8 corners*
4,1,8,$1,$2,$3,$4,$5,$6,$7,$8,$9,$10,$11,$12,$13,$14,$15,$16,$1,$2,$17*%
G04 Aperture macros list end*
%ADD10C,0.120000*%
%ADD11R,0.900000X1.000000*%
%ADD12RoundRect,0.250000X-0.250000X-0.475000X0.250000X-0.475000X0.250000X0.475000X-0.250000X0.475000X0*%
%ADD13RoundRect,0.225000X-0.225000X-0.250000X0.225000X-0.250000X0.225000X0.250000X-0.225000X0.250000X0*%
%ADD14RoundRect,0.225000X-0.225000X-0.375000X0.225000X-0.375000X0.225000X0.375000X-0.225000X0.375000X0*%
%ADD15R,0.800000X2.700000*%
%ADD16C,2.200000*%
%ADD17R,0.800000X0.400000*%
%ADD18R,0.400000X0.800000*%
%ADD19Outline5P,-0.600000X0.204000X-0.204000X0.600000X0.600000X0.600000X0.600000X-0.600000X-0.600000X-0.600000X0.000000*%
%ADD20R,1.200000X1.200000*%
%ADD21R,0.800000X0.800000*%
%ADD22RoundRect,0.140000X-0.140000X-0.170000X0.140000X-0.170000X0.140000X0.170000X-0.140000X0.170000X0*%
%ADD23RoundRect,0.135000X-0.135000X-0.185000X0.135000X-0.185000X0.135000X0.185000X-0.135000X0.185000X0*%
%ADD24R,0.300000X1.300000*%
%ADD25R,1.800000X2.200000*%
%ADD26RoundRect,0.200000X-0.200000X-0.275000X0.200000X-0.275000X0.200000X0.275000X-0.200000X0.275000X0*%
%ADD27RoundRect,0.112500X-0.350000X-0.112500X0.350000X-0.112500X0.350000X0.112500X-0.350000X0.112500X0*%
%ADD28C,0.650000*%
%ADD29O,1.000000X1.600000*%
%ADD30O,1.000000X2.100000*%
G04 APERTURE END LIST*
%TO.C,SW1*%
D10*
X140300000Y-128050000D02*
X140300000Y-127950000D01*
X140300000Y-129550000D02*
X144700000Y-129550000D01*
X144700000Y-126450000D02*
X140300000Y-126450000D01*
X144700000Y-128050000D02*
X144700000Y-127950000D01*
%TO.C,C9*%
X105738748Y-132265000D02*
X106261252Y-132265000D01*
X105738748Y-133735000D02*
X106261252Y-133735000D01*
%TO.C,C17*%
X140259420Y-134990000D02*
X140540580Y-134990000D01*
X140259420Y-136010000D02*
X140540580Y-136010000D01*
%TO.C,SW2*%
X140300000Y-123050000D02*
X140300000Y-122950000D01*
X140300000Y-124550000D02*
X144700000Y-124550000D01*
X144700000Y-121450000D02*
X140300000Y-121450000D01*
X144700000Y-123050000D02*
X144700000Y-122950000D01*
%TO.C,D1*%
X108640000Y-123000000D02*
X108640000Y-125000000D01*
X108640000Y-123000000D02*
X112650000Y-123000000D01*
X108640000Y-125000000D02*
X112650000Y-125000000D01*
%TO.C,L1*%
X101000000Y-123400000D02*
X104000000Y-123400000D01*
X101000000Y-126600000D02*
X104000000Y-126600000D01*
%TO.C,C14*%
X143659420Y-132990000D02*
X143940580Y-132990000D01*
X143659420Y-134010000D02*
X143940580Y-134010000D01*
%TO.C,U1*%
X114925000Y-114150000D02*
X114925000Y-116600000D01*
X114925000Y-114150000D02*
X117375000Y-114150000D01*
X115200000Y-114400000D02*
X130800000Y-114400000D01*
X115200000Y-135100000D02*
X115200000Y-114400000D01*
X130800000Y-114400000D02*
X130800000Y-135100000D01*
X130800000Y-135100000D02*
X115200000Y-135100000D01*
X115025000Y-121350000D02*
X114689000Y-121590000D01*
X114689000Y-121110000D01*
X115025000Y-121350000D01*
G36*
X115025000Y-121350000D02*
G01*
X114689000Y-121590000D01*
X114689000Y-121110000D01*
X115025000Y-121350000D01*
G37*
%TO.C,C6*%
X136392164Y-128640000D02*
X136607836Y-128640000D01*
X136392164Y-129360000D02*
X136607836Y-129360000D01*
%TO.C,R6*%
X135846359Y-123120000D02*
X136153641Y-123120000D01*
X135846359Y-123880000D02*
X136153641Y-123880000D01*
%TO.C,D2*%
X108640000Y-127000000D02*
X108640000Y-129000000D01*
X108640000Y-127000000D02*
X112650000Y-127000000D01*
X108640000Y-129000000D02*
X112650000Y-129000000D01*
%TO.C,C15*%
X133859420Y-134990000D02*
X134140580Y-134990000D01*
X133859420Y-136010000D02*
X134140580Y-136010000D01*
%TO.C,J2*%
X118350000Y-138700000D02*
X118350000Y-140040000D01*
X118350000Y-142760000D02*
X118350000Y-144500000D01*
X118350000Y-144500000D02*
X133650000Y-144500000D01*
X119840000Y-138700000D02*
X118350000Y-138700000D01*
X119840000Y-138700000D02*
X119840000Y-137500000D01*
X132160000Y-138700000D02*
X133650000Y-138700000D01*
X133650000Y-138700000D02*
X133650000Y-140040000D01*
X133650000Y-144500000D02*
X133650000Y-142760000D01*
%TO.C,C13*%
X140259420Y-132990000D02*
X140540580Y-132990000D01*
X140259420Y-134010000D02*
X140540580Y-134010000D01*
%TO.C,C12*%
X137059420Y-132990000D02*
X137340580Y-132990000D01*
X137059420Y-134010000D02*
X137340580Y-134010000D01*
%TO.C,C11*%
X133859420Y-132990000D02*
X134140580Y-132990000D01*
X133859420Y-134010000D02*
X134140580Y-134010000D01*
%TO.C,D3*%
X108640000Y-131000000D02*
X108640000Y-133000000D01*
X108640000Y-131000000D02*
X112650000Y-131000000D01*
X108640000Y-133000000D02*
X112650000Y-133000000D01*
%TO.C,C10*%
X110859420Y-134490000D02*
X111140580Y-134490000D01*
X110859420Y-135510000D02*
X111140580Y-135510000D01*
%TO.C,R11*%
X105762742Y-128477500D02*
X106237258Y-128477500D01*
X105762742Y-129522500D02*
X106237258Y-129522500D01*
%TO.C,Q2*%
X105265000Y-123865000D02*
X106735000Y-123865000D01*
X105265000Y-125165000D02*
X105265000Y-124835000D01*
X106735000Y-123865000D02*
X106735000Y-124515000D01*
X106735000Y-125485000D02*
X106735000Y-126135000D01*
X106735000Y-126135000D02*
X105265000Y-126135000D01*
X104820000Y-124840000D02*
X104960000Y-125030000D01*
X104680000Y-125030000D01*
X104820000Y-124840000D01*
G36*
X104960000Y-125030000D02*
G01*
X104680000Y-125030000D01*
X104820000Y-124840000D01*
X104960000Y-125030000D01*
G37*
%TO.C,R10*%
X102346359Y-128620000D02*
X102653641Y-128620000D01*
X102346359Y-129380000D02*
X102653641Y-129380000D01*
%TO.C,C16*%
X137059420Y-134990000D02*
X137340580Y-134990000D01*
X137059420Y-136010000D02*
X137340580Y-136010000D01*
%TO.C,C7*%
X139359420Y-130490000D02*
X139640580Y-130490000D01*
X139359420Y-131510000D02*
X139640580Y-131510000D01*
%TO.C,R5*%
X135846359Y-126620000D02*
X136153641Y-126620000D01*
X135846359Y-127380000D02*
X136153641Y-127380000D01*
%TO.C,C5*%
X133238748Y-128265000D02*
X133761252Y-128265000D01*
X133238748Y-129735000D02*
X133761252Y-129735000D01*
%TO.C,C8*%
X102238748Y-132265000D02*
X102761252Y-132265000D01*
X102238748Y-133735000D02*
X102761252Y-133735000D01*
%TD*%
%LPC*%
D11*
%TO.C,SW1*%
X140450000Y-127200000D03*
X144550000Y-127200000D03*
X140450000Y-128800000D03*
X144550000Y-128800000D03*
%TD*%
D12*
%TO.C,C9*%
X105050000Y-133000000D03*
X106950000Y-133000000D03*
%TD*%
D13*
%TO.C,C17*%
X139625000Y-135500000D03*
X141175000Y-135500000D03*
%TD*%
D11*
%TO.C,SW2*%
X140450000Y-122200000D03*
X144550000Y-122200000D03*
X140450000Y-123800000D03*
X144550000Y-123800000D03*
%TD*%
D14*
%TO.C,D1*%
X109350000Y-124000000D03*
X112650000Y-124000000D03*
%TD*%
D15*
%TO.C,L1*%
X101400000Y-125000000D03*
X103600000Y-125000000D03*
%TD*%
D13*
%TO.C,C14*%
X143025000Y-133500000D03*
X144575000Y-133500000D03*
%TD*%
D16*
%TO.C,H2*%
X143200000Y-142200000D03*
%TD*%
D17*
%TO.C,U1*%
X116000000Y-121350000D03*
X116000000Y-122200000D03*
X116000000Y-123050000D03*
X116000000Y-123900000D03*
X116000000Y-124750000D03*
X116000000Y-125600000D03*
X116000000Y-126450000D03*
X116000000Y-127300000D03*
X116000000Y-128150000D03*
X116000000Y-129000000D03*
X116000000Y-129850000D03*
X116000000Y-130700000D03*
X116000000Y-131550000D03*
X116000000Y-132400000D03*
X116000000Y-133250000D03*
D18*
X117050000Y-134300000D03*
X117900000Y-134300000D03*
X118750000Y-134300000D03*
X119600000Y-134300000D03*
X120450000Y-134300000D03*
X121300000Y-134300000D03*
X122150000Y-134300000D03*
X123000000Y-134300000D03*
X123850000Y-134300000D03*
X124700000Y-134300000D03*
X125550000Y-134300000D03*
X126400000Y-134300000D03*
X127250000Y-134300000D03*
X128100000Y-134300000D03*
X128950000Y-134300000D03*
D17*
X130000000Y-133250000D03*
X130000000Y-132400000D03*
X130000000Y-131550000D03*
X130000000Y-130700000D03*
X130000000Y-129850000D03*
X130000000Y-129000000D03*
X130000000Y-128150000D03*
X130000000Y-127300000D03*
X130000000Y-126450000D03*
X130000000Y-125600000D03*
X130000000Y-124750000D03*
X130000000Y-123900000D03*
X130000000Y-123050000D03*
X130000000Y-122200000D03*
X130000000Y-121350000D03*
D18*
X128950000Y-120300000D03*
X128100000Y-120300000D03*
X127250000Y-120300000D03*
X126400000Y-120300000D03*
X125550000Y-120300000D03*
X124700000Y-120300000D03*
X123850000Y-120300000D03*
X123000000Y-120300000D03*
X122150000Y-120300000D03*
X121300000Y-120300000D03*
X120450000Y-120300000D03*
X119600000Y-120300000D03*
X118750000Y-120300000D03*
X117900000Y-120300000D03*
X117050000Y-120300000D03*
D19*
X121350000Y-125650000D03*
D20*
X121350000Y-127300000D03*
X121350000Y-128950000D03*
X123000000Y-125650000D03*
X123000000Y-127300000D03*
X123000000Y-128950000D03*
X124650000Y-125650000D03*
X124650000Y-127300000D03*
X124650000Y-128950000D03*
D21*
X116000000Y-120300000D03*
X116000000Y-134300000D03*
X130000000Y-134300000D03*
X130000000Y-120300000D03*
%TD*%
D22*
%TO.C,C6*%
X136020000Y-129000000D03*
X136980000Y-129000000D03*
%TD*%
D23*
%TO.C,R6*%
X135490000Y-123500000D03*
X136510000Y-123500000D03*
%TD*%
D14*
%TO.C,D2*%
X109350000Y-128000000D03*
X112650000Y-128000000D03*
%TD*%
D13*
%TO.C,C15*%
X133225000Y-135500000D03*
X134775000Y-135500000D03*
%TD*%
D24*
%TO.C,J2*%
X120250000Y-138150000D03*
X120750000Y-138150000D03*
X121250000Y-138150000D03*
X121750000Y-138150000D03*
X122250000Y-138150000D03*
X122750000Y-138150000D03*
X123250000Y-138150000D03*
X123750000Y-138150000D03*
X124250000Y-138150000D03*
X124750000Y-138150000D03*
X125250000Y-138150000D03*
X125750000Y-138150000D03*
X126250000Y-138150000D03*
X126750000Y-138150000D03*
X127250000Y-138150000D03*
X127750000Y-138150000D03*
X128250000Y-138150000D03*
X128750000Y-138150000D03*
X129250000Y-138150000D03*
X129750000Y-138150000D03*
X130250000Y-138150000D03*
X130750000Y-138150000D03*
X131250000Y-138150000D03*
X131750000Y-138150000D03*
D25*
X118350000Y-141400000D03*
X133650000Y-141400000D03*
%TD*%
D16*
%TO.C,H1*%
X102800000Y-142200000D03*
%TD*%
D13*
%TO.C,C13*%
X139625000Y-133500000D03*
X141175000Y-133500000D03*
%TD*%
%TO.C,C12*%
X136425000Y-133500000D03*
X137975000Y-133500000D03*
%TD*%
%TO.C,C11*%
X133225000Y-133500000D03*
X134775000Y-133500000D03*
%TD*%
D14*
%TO.C,D3*%
X109350000Y-132000000D03*
X112650000Y-132000000D03*
%TD*%
D13*
%TO.C,C10*%
X110225000Y-135000000D03*
X111775000Y-135000000D03*
%TD*%
D26*
%TO.C,R11*%
X105175000Y-129000000D03*
X106825000Y-129000000D03*
%TD*%
D27*
%TO.C,Q2*%
X105112500Y-124350000D03*
X105112500Y-125650000D03*
X106887500Y-125000000D03*
%TD*%
D23*
%TO.C,R10*%
X101990000Y-129000000D03*
X103010000Y-129000000D03*
%TD*%
D13*
%TO.C,C16*%
X136425000Y-135500000D03*
X137975000Y-135500000D03*
%TD*%
%TO.C,C7*%
X138725000Y-131000000D03*
X140275000Y-131000000D03*
%TD*%
D23*
%TO.C,R5*%
X135490000Y-127000000D03*
X136510000Y-127000000D03*
%TD*%
D12*
%TO.C,C5*%
X132550000Y-129000000D03*
X134450000Y-129000000D03*
%TD*%
%TO.C,C8*%
X101550000Y-133000000D03*
X103450000Y-133000000D03*
%TD*%
D28*
%TO.C,J1*%
X113890000Y-137400000D03*
X108110000Y-137400000D03*
D29*
X115320000Y-141050000D03*
D30*
X115320000Y-136870000D03*
D29*
X106680000Y-141050000D03*
D30*
X106680000Y-136870000D03*
%TD*%
%LPD*%
M02*
