%TF.GenerationSoftware,KiCad,Pcbnew,10.0.5*%
%TF.CreationDate,2026-08-10T15:38:10+02:00*%
%TF.ProjectId,chaya2mqtt-s2,63686179-6132-46d7-9174-742d73322e6b,rev?*%
%TF.SameCoordinates,Original*%
%TF.FileFunction,Legend,Bot*%
%TF.FilePolarity,Positive*%
%FSLAX46Y46*%
G04 Gerber Fmt 4.6, Leading zero omitted, Abs format (unit mm)*
G04 Created by KiCad (PCBNEW 10.0.5) date 2026-08-10 15:38:10*
%MOMM*%
%LPD*%
G01*
G04 APERTURE LIST*
G04 Aperture macros list*
%AMRoundRect*
0 Rectangle with rounded corners*
0 $1 Rounding radius*
0 $2 $3 $4 $5 $6 $7 $8 $9 X,Y pos of 4 corners*
0 Add a 4 corners polygon primitive as box body*
4,1,4,$2,$3,$4,$5,$6,$7,$8,$9,$2,$3,0*
0 Add four circle primitives for the rounded corners*
1,1,$1+$1,$2,$3*
1,1,$1+$1,$4,$5*
1,1,$1+$1,$6,$7*
1,1,$1+$1,$8,$9*
0 Add four rect primitives between the rounded corners*
20,1,$1+$1,$2,$3,$4,$5,0*
20,1,$1+$1,$4,$5,$6,$7,0*
20,1,$1+$1,$6,$7,$8,$9,0*
20,1,$1+$1,$8,$9,$2,$3,0*%
G04 Aperture macros list end*
%ADD10C,0.120000*%
%ADD11C,2.200000*%
%ADD12RoundRect,0.135000X0.135000X0.185000X-0.135000X0.185000X-0.135000X-0.185000X0.135000X-0.185000X0*%
%ADD13RoundRect,0.250000X0.250000X0.475000X-0.250000X0.475000X-0.250000X-0.475000X0.250000X-0.475000X0*%
%ADD14RoundRect,0.250000X0.375000X0.625000X-0.375000X0.625000X-0.375000X-0.625000X0.375000X-0.625000X0*%
%ADD15C,0.650000*%
%ADD16RoundRect,0.150000X0.150000X0.575000X-0.150000X0.575000X-0.150000X-0.575000X0.150000X-0.575000X0*%
%ADD17RoundRect,0.075000X0.075000X0.650000X-0.075000X0.650000X-0.075000X-0.650000X0.075000X-0.650000X0*%
%ADD18O,1.000000X1.600000*%
%ADD19O,1.000000X2.100000*%
%ADD20C,1.000000*%
%ADD21RoundRect,0.150000X0.512500X0.150000X-0.512500X0.150000X-0.512500X-0.150000X0.512500X-0.150000X0*%
%ADD22RoundRect,0.150000X0.587500X0.150000X-0.587500X0.150000X-0.587500X-0.150000X0.587500X-0.150000X0*%
%ADD23RoundRect,0.150000X0.150000X0.625000X-0.150000X0.625000X-0.150000X-0.625000X0.150000X-0.625000X0*%
%ADD24RoundRect,0.250000X0.350000X0.650000X-0.350000X0.650000X-0.350000X-0.650000X0.350000X-0.650000X0*%
%ADD25RoundRect,0.140000X0.140000X0.170000X-0.140000X0.170000X-0.140000X-0.170000X0.140000X-0.170000X0*%
G04 APERTURE END LIST*
%TO.C,R9*%
D10*
X110153641Y-128620000D02*
X109846359Y-128620000D01*
X110153641Y-129380000D02*
X109846359Y-129380000D01*
%TO.C,C1*%
X131261252Y-141265000D02*
X130738748Y-141265000D01*
X131261252Y-142735000D02*
X130738748Y-142735000D01*
%TO.C,R8*%
X107153641Y-128620000D02*
X106846359Y-128620000D01*
X107153641Y-129380000D02*
X106846359Y-129380000D01*
%TO.C,F1*%
X121602064Y-141090000D02*
X120397936Y-141090000D01*
X121602064Y-142910000D02*
X120397936Y-142910000D01*
%TO.C,J1*%
X106300000Y-138100000D02*
X106300000Y-140100000D01*
X106300000Y-142000000D02*
X106300000Y-143900000D01*
X115700000Y-138100000D02*
X115700000Y-140100000D01*
X115700000Y-142000000D02*
X115700000Y-143900000D01*
X115700000Y-143900000D02*
X106300000Y-143900000D01*
%TO.C,R7*%
X109153641Y-123620000D02*
X108846359Y-123620000D01*
X109153641Y-124380000D02*
X108846359Y-124380000D01*
%TO.C,TP3*%
X123700000Y-128000000D02*
G75*
G02*
X122300000Y-128000000I-700000J0D01*
G01*
X122300000Y-128000000D02*
G75*
G02*
X123700000Y-128000000I700000J0D01*
G01*
%TO.C,TP1*%
X117700000Y-128000000D02*
G75*
G02*
X116300000Y-128000000I-700000J0D01*
G01*
X116300000Y-128000000D02*
G75*
G02*
X117700000Y-128000000I700000J0D01*
G01*
%TO.C,R3*%
X124153641Y-132620000D02*
X123846359Y-132620000D01*
X124153641Y-133380000D02*
X123846359Y-133380000D01*
%TO.C,TP4*%
X126700000Y-128000000D02*
G75*
G02*
X125300000Y-128000000I-700000J0D01*
G01*
X125300000Y-128000000D02*
G75*
G02*
X126700000Y-128000000I700000J0D01*
G01*
%TO.C,U2*%
X118090000Y-131440000D02*
X118090000Y-131490000D01*
X118090000Y-134510000D02*
X118090000Y-134560000D01*
X118090000Y-134560000D02*
X119910000Y-134560000D01*
X119910000Y-131440000D02*
X118090000Y-131440000D01*
X119910000Y-131490000D02*
X119910000Y-131440000D01*
X119910000Y-134560000D02*
X119910000Y-134510000D01*
X120450000Y-131490000D02*
X120690000Y-131160000D01*
X120210000Y-131160000D01*
X120450000Y-131490000D01*
G36*
X120450000Y-131490000D02*
G01*
X120210000Y-131160000D01*
X120690000Y-131160000D01*
X120450000Y-131490000D01*
G37*
%TO.C,TP5*%
X129700000Y-128000000D02*
G75*
G02*
X128300000Y-128000000I-700000J0D01*
G01*
X128300000Y-128000000D02*
G75*
G02*
X129700000Y-128000000I700000J0D01*
G01*
%TO.C,R4*%
X124153641Y-134620000D02*
X123846359Y-134620000D01*
X124153641Y-135380000D02*
X123846359Y-135380000D01*
%TO.C,TP2*%
X120700000Y-128000000D02*
G75*
G02*
X119300000Y-128000000I-700000J0D01*
G01*
X119300000Y-128000000D02*
G75*
G02*
X120700000Y-128000000I700000J0D01*
G01*
%TO.C,Q1*%
X102240000Y-128440000D02*
X102240000Y-129440000D01*
X102240000Y-130560000D02*
X102240000Y-131560000D01*
X102240000Y-131560000D02*
X103760000Y-131560000D01*
X103760000Y-128440000D02*
X102240000Y-128440000D01*
X103760000Y-128490000D02*
X103760000Y-128440000D01*
X103760000Y-130390000D02*
X103760000Y-129610000D01*
X103760000Y-131560000D02*
X103760000Y-131510000D01*
X104300000Y-129620000D02*
X104060000Y-129950000D01*
X104540000Y-129950000D01*
X104300000Y-129620000D01*
G36*
X104540000Y-129950000D02*
G01*
X104060000Y-129950000D01*
X104300000Y-129620000D01*
X104540000Y-129950000D01*
G37*
%TO.C,U3*%
X135090000Y-137440000D02*
X135090000Y-137490000D01*
X135090000Y-138610000D02*
X135090000Y-139390000D01*
X135090000Y-140510000D02*
X135090000Y-140560000D01*
X135090000Y-140560000D02*
X136910000Y-140560000D01*
X136910000Y-137440000D02*
X135090000Y-137440000D01*
X136910000Y-137490000D02*
X136910000Y-137440000D01*
X136910000Y-140560000D02*
X136910000Y-140510000D01*
X137450000Y-137490000D02*
X137690000Y-137160000D01*
X137210000Y-137160000D01*
X137450000Y-137490000D01*
G36*
X137450000Y-137490000D02*
G01*
X137210000Y-137160000D01*
X137690000Y-137160000D01*
X137450000Y-137490000D01*
G37*
%TO.C,J3*%
X100890000Y-122215000D02*
X101940000Y-122215000D01*
X100890000Y-124715000D02*
X100890000Y-122215000D01*
X105940000Y-126685000D02*
X102060000Y-126685000D01*
X106060000Y-122215000D02*
X106060000Y-121225000D01*
X107110000Y-122215000D02*
X106060000Y-122215000D01*
X107110000Y-124715000D02*
X107110000Y-122215000D01*
%TO.C,C3*%
X141261252Y-138265000D02*
X140738748Y-138265000D01*
X141261252Y-139735000D02*
X140738748Y-139735000D01*
%TO.C,R1*%
X103653641Y-135620000D02*
X103346359Y-135620000D01*
X103653641Y-136380000D02*
X103346359Y-136380000D01*
%TO.C,C2*%
X131107836Y-138640000D02*
X130892164Y-138640000D01*
X131107836Y-139360000D02*
X130892164Y-139360000D01*
%TO.C,R2*%
X103653641Y-137620000D02*
X103346359Y-137620000D01*
X103653641Y-138380000D02*
X103346359Y-138380000D01*
%TO.C,C4*%
X144107836Y-138640000D02*
X143892164Y-138640000D01*
X144107836Y-139360000D02*
X143892164Y-139360000D01*
%TD*%
%LPC*%
D11*
%TO.C,H2*%
X143200000Y-142200000D03*
%TD*%
%TO.C,H1*%
X102800000Y-142200000D03*
%TD*%
D12*
%TO.C,R9*%
X110510000Y-129000000D03*
X109490000Y-129000000D03*
%TD*%
D13*
%TO.C,C1*%
X131950000Y-142000000D03*
X130050000Y-142000000D03*
%TD*%
D12*
%TO.C,R8*%
X107510000Y-129000000D03*
X106490000Y-129000000D03*
%TD*%
D14*
%TO.C,F1*%
X122400000Y-142000000D03*
X119600000Y-142000000D03*
%TD*%
D15*
%TO.C,J1*%
X113890000Y-137400000D03*
X108110000Y-137400000D03*
D16*
X114250000Y-135955000D03*
X113450000Y-135955000D03*
D17*
X112250000Y-135955000D03*
X111250000Y-135955000D03*
X110750000Y-135955000D03*
X109750000Y-135955000D03*
D16*
X108550000Y-135955000D03*
X107750000Y-135955000D03*
X107750000Y-135955000D03*
X108550000Y-135955000D03*
D17*
X109250000Y-135955000D03*
X110250000Y-135955000D03*
X111750000Y-135955000D03*
X112750000Y-135955000D03*
D16*
X113450000Y-135955000D03*
X114250000Y-135955000D03*
D18*
X115320000Y-141050000D03*
D19*
X115320000Y-136870000D03*
D18*
X106680000Y-141050000D03*
D19*
X106680000Y-136870000D03*
%TD*%
D12*
%TO.C,R7*%
X109510000Y-124000000D03*
X108490000Y-124000000D03*
%TD*%
D20*
%TO.C,TP3*%
X123000000Y-128000000D03*
%TD*%
%TO.C,TP1*%
X117000000Y-128000000D03*
%TD*%
D12*
%TO.C,R3*%
X124510000Y-133000000D03*
X123490000Y-133000000D03*
%TD*%
D20*
%TO.C,TP4*%
X126000000Y-128000000D03*
%TD*%
D21*
%TO.C,U2*%
X120137500Y-132050000D03*
X120137500Y-133000000D03*
X120137500Y-133950000D03*
X117862500Y-133950000D03*
X117862500Y-133000000D03*
X117862500Y-132050000D03*
%TD*%
D20*
%TO.C,TP5*%
X129000000Y-128000000D03*
%TD*%
D12*
%TO.C,R4*%
X124510000Y-135000000D03*
X123490000Y-135000000D03*
%TD*%
D20*
%TO.C,TP2*%
X120000000Y-128000000D03*
%TD*%
D22*
%TO.C,Q1*%
X103937500Y-129050000D03*
X103937500Y-130950000D03*
X102062500Y-130000000D03*
%TD*%
D21*
%TO.C,U3*%
X137137500Y-138050000D03*
X137137500Y-139000000D03*
X137137500Y-139950000D03*
X134862500Y-139950000D03*
X134862500Y-138050000D03*
%TD*%
D23*
%TO.C,J3*%
X105500000Y-122000000D03*
X104500000Y-122000000D03*
X103500000Y-122000000D03*
X102500000Y-122000000D03*
D24*
X106800000Y-125875000D03*
X101200000Y-125875000D03*
%TD*%
D13*
%TO.C,C3*%
X141950000Y-139000000D03*
X140050000Y-139000000D03*
%TD*%
D12*
%TO.C,R1*%
X104010000Y-136000000D03*
X102990000Y-136000000D03*
%TD*%
D25*
%TO.C,C2*%
X131480000Y-139000000D03*
X130520000Y-139000000D03*
%TD*%
D12*
%TO.C,R2*%
X104010000Y-138000000D03*
X102990000Y-138000000D03*
%TD*%
D25*
%TO.C,C4*%
X144480000Y-139000000D03*
X143520000Y-139000000D03*
%TD*%
%LPD*%
M02*
