%TF.GenerationSoftware,KiCad,Pcbnew,10.0.5*%
%TF.CreationDate,2026-08-10T15:38:10+02:00*%
%TF.ProjectId,chaya2mqtt-s2,63686179-6132-46d7-9174-742d73322e6b,rev?*%
%TF.SameCoordinates,Original*%
%TF.FileFunction,Copper,L1,Top*%
%TF.FilePolarity,Positive*%
%FSLAX46Y46*%
G04 Gerber Fmt 4.6, Leading zero omitted, Abs format (unit mm)*
G04 Created by KiCad (PCBNEW 10.0.5) date 2026-08-10 15:38:10*
%MOMM*%
%LPD*%
G01*
G04 APERTURE LIST*
G04 Aperture macros list*
%AMRoundRect*
0 Rectangle with rounded corners*
0 $1 Rounding radius*
0 $2 $3 $4 $5 $6 $7 $8 $9 X,Y pos of 4 corners*
0 Add a 4 corners polygon primitive as box body*
4,1,4,$2,$3,$4,$5,$6,$7,$8,$9,$2,$3,0*
0 Add four circle primitives for the rounded corners*
1,1,$1+$1,$2,$3*
1,1,$1+$1,$4,$5*
1,1,$1+$1,$6,$7*
1,1,$1+$1,$8,$9*
0 Add four rect primitives between the rounded corners*
20,1,$1+$1,$2,$3,$4,$5,0*
20,1,$1+$1,$4,$5,$6,$7,0*
20,1,$1+$1,$6,$7,$8,$9,0*
20,1,$1+$1,$8,$9,$2,$3,0*%
%AMOutline5P*
0 Free polygon, 5 corners , with rotation*
0 The origin of the aperture is its center*
0 number of corners: always 5*
0 $1 to $10 corner X, Y*
0 $11 Rotation angle, in degrees counterclockwise*
0 create outline with 5 corners*
4,1,5,$1,$2,$3,$4,$5,$6,$7,$8,$9,$10,$1,$2,$11*%
%AMOutline6P*
0 Free polygon, 6 corners , with rotation*
0 The origin of the aperture is its center*
0 number of corners: always 6*
0 $1 to $12 corner X, Y*
0 $13 Rotation angle, in degrees counterclockwise*
0 create outline with 6 corners*
4,1,6,$1,$2,$3,$4,$5,$6,$7,$8,$9,$10,$11,$12,$1,$2,$13*%
%AMOutline7P*
0 Free polygon, 7 corners , with rotation*
0 The origin of the aperture is its center*
0 number of corners: always 7*
0 $1 to $14 corner X, Y*
0 $15 Rotation angle, in degrees counterclockwise*
0 create outline with 7 corners*
4,1,7,$1,$2,$3,$4,$5,$6,$7,$8,$9,$10,$11,$12,$13,$14,$1,$2,$15*%
%AMOutline8P*
0 Free polygon, 8 corners , with rotation*
0 The origin of the aperture is its center*
0 number of corners: always 8*
0 $1 to $16 corner X, Y*
0 $17 Rotation angle, in degrees counterclockwise*
0 create outline with 8 corners*
4,1,8,$1,$2,$3,$4,$5,$6,$7,$8,$9,$10,$11,$12,$13,$14,$15,$16,$1,$2,$17*%
G04 Aperture macros list end*
%TA.AperFunction,SMDPad,CuDef*%
%ADD10R,0.900000X1.000000*%
%TD*%
%TA.AperFunction,SMDPad,CuDef*%
%ADD11RoundRect,0.250000X-0.250000X-0.475000X0.250000X-0.475000X0.250000X0.475000X-0.250000X0.475000X0*%
%TD*%
%TA.AperFunction,SMDPad,CuDef*%
%ADD12RoundRect,0.225000X-0.225000X-0.250000X0.225000X-0.250000X0.225000X0.250000X-0.225000X0.250000X0*%
%TD*%
%TA.AperFunction,SMDPad,CuDef*%
%ADD13RoundRect,0.225000X-0.225000X-0.375000X0.225000X-0.375000X0.225000X0.375000X-0.225000X0.375000X0*%
%TD*%
%TA.AperFunction,SMDPad,CuDef*%
%ADD14R,0.800000X2.700000*%
%TD*%
%TA.AperFunction,SMDPad,CuDef*%
%ADD15R,0.800000X0.400000*%
%TD*%
%TA.AperFunction,SMDPad,CuDef*%
%ADD16R,0.400000X0.800000*%
%TD*%
%TA.AperFunction,SMDPad,CuDef*%
%ADD17Outline5P,-0.600000X0.204000X-0.204000X0.600000X0.600000X0.600000X0.600000X-0.600000X-0.600000X-0.600000X0.000000*%
%TD*%
%TA.AperFunction,SMDPad,CuDef*%
%ADD18R,1.200000X1.200000*%
%TD*%
%TA.AperFunction,SMDPad,CuDef*%
%ADD19R,0.800000X0.800000*%
%TD*%
%TA.AperFunction,SMDPad,CuDef*%
%ADD20RoundRect,0.140000X-0.140000X-0.170000X0.140000X-0.170000X0.140000X0.170000X-0.140000X0.170000X0*%
%TD*%
%TA.AperFunction,SMDPad,CuDef*%
%ADD21RoundRect,0.135000X-0.135000X-0.185000X0.135000X-0.185000X0.135000X0.185000X-0.135000X0.185000X0*%
%TD*%
%TA.AperFunction,SMDPad,CuDef*%
%ADD22R,0.300000X1.300000*%
%TD*%
%TA.AperFunction,SMDPad,CuDef*%
%ADD23R,1.800000X2.200000*%
%TD*%
%TA.AperFunction,SMDPad,CuDef*%
%ADD24RoundRect,0.200000X-0.200000X-0.275000X0.200000X-0.275000X0.200000X0.275000X-0.200000X0.275000X0*%
%TD*%
%TA.AperFunction,SMDPad,CuDef*%
%ADD25RoundRect,0.112500X-0.350000X-0.112500X0.350000X-0.112500X0.350000X0.112500X-0.350000X0.112500X0*%
%TD*%
%TA.AperFunction,ComponentPad*%
%ADD26O,1.000000X1.600000*%
%TD*%
%TA.AperFunction,ComponentPad*%
%ADD27O,1.000000X2.100000*%
%TD*%
%TA.AperFunction,ViaPad*%
%ADD28C,0.600000*%
%TD*%
%TA.AperFunction,Conductor*%
%ADD29C,0.200000*%
%TD*%
%TA.AperFunction,Conductor*%
%ADD30C,0.150000*%
%TD*%
G04 APERTURE END LIST*
D10*
%TO.P,SW1,1,1_1*%
%TO.N,/EN*%
X140450000Y-127200000D03*
X144550000Y-127200000D03*
%TO.P,SW1,2,2_2*%
%TO.N,/GND*%
X140450000Y-128800000D03*
X144550000Y-128800000D03*
%TD*%
D11*
%TO.P,C9,1,1_1*%
%TO.N,/SW*%
X105050000Y-133000000D03*
%TO.P,C9,2,2_2*%
%TO.N,/FLY*%
X106950000Y-133000000D03*
%TD*%
D12*
%TO.P,C17,1,1_1*%
%TO.N,/VCOM*%
X139625000Y-135500000D03*
%TO.P,C17,2,2_2*%
%TO.N,/GND*%
X141175000Y-135500000D03*
%TD*%
D10*
%TO.P,SW2,1,1_1*%
%TO.N,/BOOT*%
X140450000Y-122200000D03*
X144550000Y-122200000D03*
%TO.P,SW2,2,2_2*%
%TO.N,/GND*%
X140450000Y-123800000D03*
X144550000Y-123800000D03*
%TD*%
D13*
%TO.P,D1,1,1_1*%
%TO.N,/FLY*%
X109350000Y-124000000D03*
%TO.P,D1,2,2_2*%
%TO.N,/PREVGL*%
X112650000Y-124000000D03*
%TD*%
D14*
%TO.P,L1,1,1_1*%
%TO.N,/+3V3*%
X101400000Y-125000000D03*
%TO.P,L1,2,2_2*%
%TO.N,/SW*%
X103600000Y-125000000D03*
%TD*%
D12*
%TO.P,C14,1,1_1*%
%TO.N,/VSH1*%
X143025000Y-133500000D03*
%TO.P,C14,2,2_2*%
%TO.N,/GND*%
X144575000Y-133500000D03*
%TD*%
D15*
%TO.P,U1,1,GND_1*%
%TO.N,/GND*%
X116000000Y-121350000D03*
%TO.P,U1,2,GND_2*%
X116000000Y-122200000D03*
%TO.P,U1,3,3V3_3*%
%TO.N,/+3V3*%
X116000000Y-123050000D03*
%TO.P,U1,4,IO0/BOOT_4*%
%TO.N,/BOOT*%
X116000000Y-123900000D03*
%TO.P,U1,5,NC/UNUSED_5*%
%TO.N,unconnected-(U1-NC/UNUSED-Pad5)*%
X116000000Y-124750000D03*
%TO.P,U1,6,NC/UNUSED_6*%
%TO.N,unconnected-(U1-NC/UNUSED-Pad6)*%
X116000000Y-125600000D03*
%TO.P,U1,7,NC/UNUSED_7*%
%TO.N,unconnected-(U1-NC/UNUSED-Pad7)*%
X116000000Y-126450000D03*
%TO.P,U1,8,IO4/BTN_8*%
%TO.N,/BTN*%
X116000000Y-127300000D03*
%TO.P,U1,9,IO5/LED_9*%
%TO.N,/LED_GATE*%
X116000000Y-128150000D03*
%TO.P,U1,10,IO6/BUSY_10*%
%TO.N,/EPD_BUSY*%
X116000000Y-129000000D03*
%TO.P,U1,11,IO7/RST_11*%
%TO.N,/EPD_RST*%
X116000000Y-129850000D03*
%TO.P,U1,12,NC/UNUSED_12*%
%TO.N,unconnected-(U1-NC/UNUSED-Pad12)*%
X116000000Y-130700000D03*
%TO.P,U1,13,NC/UNUSED_13*%
%TO.N,unconnected-(U1-NC/UNUSED-Pad13)*%
X116000000Y-131550000D03*
%TO.P,U1,14,IO10/CS_14*%
%TO.N,/EPD_CS*%
X116000000Y-132400000D03*
%TO.P,U1,15,IO11/MOSI_15*%
%TO.N,/EPD_MOSI*%
X116000000Y-133250000D03*
D16*
%TO.P,U1,16,IO12/SCK_16*%
%TO.N,/EPD_SCK*%
X117050000Y-134300000D03*
%TO.P,U1,17,NC/UNUSED_17*%
%TO.N,unconnected-(U1-NC/UNUSED-Pad17)*%
X117900000Y-134300000D03*
%TO.P,U1,18,NC/UNUSED_18*%
%TO.N,unconnected-(U1-NC/UNUSED-Pad18)*%
X118750000Y-134300000D03*
%TO.P,U1,19,IO15/DC_19*%
%TO.N,/EPD_DC*%
X119600000Y-134300000D03*
%TO.P,U1,20,NC/UNUSED_20*%
%TO.N,unconnected-(U1-NC/UNUSED-Pad20)*%
X120450000Y-134300000D03*
%TO.P,U1,21,NC/UNUSED_21*%
%TO.N,unconnected-(U1-NC/UNUSED-Pad21)*%
X121300000Y-134300000D03*
%TO.P,U1,22,NC/UNUSED_22*%
%TO.N,unconnected-(U1-NC/UNUSED-Pad22)*%
X122150000Y-134300000D03*
%TO.P,U1,23,IO19/USB_D-_23*%
%TO.N,/USB_DN*%
X123000000Y-134300000D03*
%TO.P,U1,24,IO20/USB_D+_24*%
%TO.N,/USB_DP*%
X123850000Y-134300000D03*
%TO.P,U1,25,NC/UNUSED_25*%
%TO.N,unconnected-(U1-NC/UNUSED-Pad25)*%
X124700000Y-134300000D03*
%TO.P,U1,26,NC/UNUSED_26*%
%TO.N,unconnected-(U1-NC/UNUSED-Pad26)*%
X125550000Y-134300000D03*
%TO.P,U1,27,NC/UNUSED_27*%
%TO.N,unconnected-(U1-NC/UNUSED-Pad27)*%
X126400000Y-134300000D03*
%TO.P,U1,28,NC/UNUSED_28*%
%TO.N,unconnected-(U1-NC/UNUSED-Pad28)*%
X127250000Y-134300000D03*
%TO.P,U1,29,NC/UNUSED_29*%
%TO.N,unconnected-(U1-NC/UNUSED-Pad29)*%
X128100000Y-134300000D03*
%TO.P,U1,30,GND_30*%
%TO.N,/GND*%
X128950000Y-134300000D03*
D15*
%TO.P,U1,31,NC/UNUSED_31*%
%TO.N,unconnected-(U1-NC/UNUSED-Pad31)*%
X130000000Y-133250000D03*
%TO.P,U1,32,NC/UNUSED_32*%
%TO.N,unconnected-(U1-NC/UNUSED-Pad32)*%
X130000000Y-132400000D03*
%TO.P,U1,33,NC/UNUSED_33*%
%TO.N,unconnected-(U1-NC/UNUSED-Pad33)*%
X130000000Y-131550000D03*
%TO.P,U1,34,NC/UNUSED_34*%
%TO.N,unconnected-(U1-NC/UNUSED-Pad34)*%
X130000000Y-130700000D03*
%TO.P,U1,35,NC/UNUSED_35*%
%TO.N,unconnected-(U1-NC/UNUSED-Pad35)*%
X130000000Y-129850000D03*
%TO.P,U1,36,NC/UNUSED_36*%
%TO.N,unconnected-(U1-NC/UNUSED-Pad36)*%
X130000000Y-129000000D03*
%TO.P,U1,37,NC/UNUSED_37*%
%TO.N,unconnected-(U1-NC/UNUSED-Pad37)*%
X130000000Y-128150000D03*
%TO.P,U1,38,NC/UNUSED_38*%
%TO.N,unconnected-(U1-NC/UNUSED-Pad38)*%
X130000000Y-127300000D03*
%TO.P,U1,39,NC/UNUSED_39*%
%TO.N,unconnected-(U1-NC/UNUSED-Pad39)*%
X130000000Y-126450000D03*
%TO.P,U1,40,NC/UNUSED_40*%
%TO.N,unconnected-(U1-NC/UNUSED-Pad40)*%
X130000000Y-125600000D03*
%TO.P,U1,41,NC/UNUSED_41*%
%TO.N,unconnected-(U1-NC/UNUSED-Pad41)*%
X130000000Y-124750000D03*
%TO.P,U1,42,GND_42*%
%TO.N,/GND*%
X130000000Y-123900000D03*
%TO.P,U1,43,GND_43*%
X130000000Y-123050000D03*
%TO.P,U1,44,NC/UNUSED_44*%
%TO.N,unconnected-(U1-NC/UNUSED-Pad44)*%
X130000000Y-122200000D03*
%TO.P,U1,45,EN_45*%
%TO.N,/EN*%
X130000000Y-121350000D03*
D16*
%TO.P,U1,46,GND_46*%
%TO.N,/GND*%
X128950000Y-120300000D03*
%TO.P,U1,47,GND_47*%
X128100000Y-120300000D03*
%TO.P,U1,48,GND_48*%
X127250000Y-120300000D03*
%TO.P,U1,49,GND_49*%
X126400000Y-120300000D03*
%TO.P,U1,50,GND_50*%
X125550000Y-120300000D03*
%TO.P,U1,51,GND_51*%
X124700000Y-120300000D03*
%TO.P,U1,52,GND_52*%
X123850000Y-120300000D03*
%TO.P,U1,53,GND_53*%
X123000000Y-120300000D03*
%TO.P,U1,54,GND_54*%
X122150000Y-120300000D03*
%TO.P,U1,55,GND_55*%
X121300000Y-120300000D03*
%TO.P,U1,56,GND_56*%
X120450000Y-120300000D03*
%TO.P,U1,57,GND_57*%
X119600000Y-120300000D03*
%TO.P,U1,58,GND_58*%
X118750000Y-120300000D03*
%TO.P,U1,59,GND_59*%
X117900000Y-120300000D03*
%TO.P,U1,60,GND_60*%
X117050000Y-120300000D03*
D17*
%TO.P,U1,61,GND_61*%
X121350000Y-125650000D03*
D18*
X121350000Y-127300000D03*
X121350000Y-128950000D03*
X123000000Y-125650000D03*
X123000000Y-127300000D03*
X123000000Y-128950000D03*
X124650000Y-125650000D03*
X124650000Y-127300000D03*
X124650000Y-128950000D03*
D19*
%TO.P,U1,62,GND_62*%
X116000000Y-120300000D03*
%TO.P,U1,63,GND_63*%
X116000000Y-134300000D03*
%TO.P,U1,64,GND_64*%
X130000000Y-134300000D03*
%TO.P,U1,65,GND_65*%
X130000000Y-120300000D03*
%TD*%
D20*
%TO.P,C6,1,1_1*%
%TO.N,/+3V3*%
X136020000Y-129000000D03*
%TO.P,C6,2,2_2*%
%TO.N,/GND*%
X136980000Y-129000000D03*
%TD*%
D21*
%TO.P,R6,1,1_1*%
%TO.N,/+3V3*%
X135490000Y-123500000D03*
%TO.P,R6,2,2_2*%
%TO.N,/BOOT*%
X136510000Y-123500000D03*
%TD*%
D13*
%TO.P,D2,1,1_1*%
%TO.N,/GND*%
X109350000Y-128000000D03*
%TO.P,D2,2,2_2*%
%TO.N,/FLY*%
X112650000Y-128000000D03*
%TD*%
D12*
%TO.P,C15,1,1_1*%
%TO.N,/VSL*%
X133225000Y-135500000D03*
%TO.P,C15,2,2_2*%
%TO.N,/GND*%
X134775000Y-135500000D03*
%TD*%
D22*
%TO.P,J2,1,NC_1*%
%TO.N,unconnected-(J2-NC-Pad1)*%
X120250000Y-138150000D03*
%TO.P,J2,2,GDR_2*%
%TO.N,/GDR*%
X120750000Y-138150000D03*
%TO.P,J2,3,RESE_3*%
%TO.N,/RESE*%
X121250000Y-138150000D03*
%TO.P,J2,4,NC_4*%
%TO.N,unconnected-(J2-NC-Pad4)*%
X121750000Y-138150000D03*
%TO.P,J2,5,VSH2/VDHR_5*%
%TO.N,/VSH2*%
X122250000Y-138150000D03*
%TO.P,J2,6,TSCL_6*%
%TO.N,unconnected-(J2-TSCL-Pad6)*%
X122750000Y-138150000D03*
%TO.P,J2,7,TSDA_7*%
%TO.N,unconnected-(J2-TSDA-Pad7)*%
X123250000Y-138150000D03*
%TO.P,J2,8,BS_8*%
%TO.N,/GND*%
X123750000Y-138150000D03*
%TO.P,J2,9,BUSY_N_9*%
%TO.N,/EPD_BUSY*%
X124250000Y-138150000D03*
%TO.P,J2,10,RST_N_10*%
%TO.N,/EPD_RST*%
X124750000Y-138150000D03*
%TO.P,J2,11,DC_11*%
%TO.N,/EPD_DC*%
X125250000Y-138150000D03*
%TO.P,J2,12,CSB_12*%
%TO.N,/EPD_CS*%
X125750000Y-138150000D03*
%TO.P,J2,13,SCL_13*%
%TO.N,/EPD_SCK*%
X126250000Y-138150000D03*
%TO.P,J2,14,SDA_14*%
%TO.N,/EPD_MOSI*%
X126750000Y-138150000D03*
%TO.P,J2,15,VDDIO_15*%
%TO.N,/+3V3*%
X127250000Y-138150000D03*
%TO.P,J2,16,VCI/VDD_16*%
X127750000Y-138150000D03*
%TO.P,J2,17,VSS_17*%
%TO.N,/GND*%
X128250000Y-138150000D03*
%TO.P,J2,18,VDDD_18*%
%TO.N,/VDD*%
X128750000Y-138150000D03*
%TO.P,J2,19,VPP_19*%
%TO.N,unconnected-(J2-VPP-Pad19)*%
X129250000Y-138150000D03*
%TO.P,J2,20,VSH1_20*%
%TO.N,/VSH1*%
X129750000Y-138150000D03*
%TO.P,J2,21,VGH_21*%
%TO.N,/PREVGH*%
X130250000Y-138150000D03*
%TO.P,J2,22,VSL_22*%
%TO.N,/VSL*%
X130750000Y-138150000D03*
%TO.P,J2,23,VGL_23*%
%TO.N,/PREVGL*%
X131250000Y-138150000D03*
%TO.P,J2,24,VCOM_24*%
%TO.N,/VCOM*%
X131750000Y-138150000D03*
D23*
%TO.P,J2,MP*%
%TO.N,N/C*%
X118350000Y-141400000D03*
X133650000Y-141400000D03*
%TD*%
D12*
%TO.P,C13,1,1_1*%
%TO.N,/VDD*%
X139625000Y-133500000D03*
%TO.P,C13,2,2_2*%
%TO.N,/GND*%
X141175000Y-133500000D03*
%TD*%
%TO.P,C12,1,1_1*%
%TO.N,/+3V3*%
X136425000Y-133500000D03*
%TO.P,C12,2,2_2*%
%TO.N,/GND*%
X137975000Y-133500000D03*
%TD*%
%TO.P,C11,1,1_1*%
%TO.N,/VSH2*%
X133225000Y-133500000D03*
%TO.P,C11,2,2_2*%
%TO.N,/GND*%
X134775000Y-133500000D03*
%TD*%
D13*
%TO.P,D3,1,1_1*%
%TO.N,/PREVGH*%
X109350000Y-132000000D03*
%TO.P,D3,2,2_2*%
%TO.N,/SW*%
X112650000Y-132000000D03*
%TD*%
D12*
%TO.P,C10,1,1_1*%
%TO.N,/PREVGH*%
X110225000Y-135000000D03*
%TO.P,C10,2,2_2*%
%TO.N,/GND*%
X111775000Y-135000000D03*
%TD*%
D24*
%TO.P,R11,1,1_1*%
%TO.N,/RESE*%
X105175000Y-129000000D03*
%TO.P,R11,2,2_2*%
%TO.N,/GND*%
X106825000Y-129000000D03*
%TD*%
D25*
%TO.P,Q2,1,G_1*%
%TO.N,/GDR*%
X105112500Y-124350000D03*
%TO.P,Q2,2,S_2*%
%TO.N,/RESE*%
X105112500Y-125650000D03*
%TO.P,Q2,3,D_3*%
%TO.N,/SW*%
X106887500Y-125000000D03*
%TD*%
D21*
%TO.P,R10,1,1_1*%
%TO.N,/GDR*%
X101990000Y-129000000D03*
%TO.P,R10,2,2_2*%
%TO.N,/GND*%
X103010000Y-129000000D03*
%TD*%
D12*
%TO.P,C16,1,1_1*%
%TO.N,/PREVGH*%
X136425000Y-135500000D03*
%TO.P,C16,2,2_2*%
%TO.N,/PREVGL*%
X137975000Y-135500000D03*
%TD*%
%TO.P,C7,1,1_1*%
%TO.N,/EN*%
X138725000Y-131000000D03*
%TO.P,C7,2,2_2*%
%TO.N,/GND*%
X140275000Y-131000000D03*
%TD*%
D21*
%TO.P,R5,1,1_1*%
%TO.N,/+3V3*%
X135490000Y-127000000D03*
%TO.P,R5,2,2_2*%
%TO.N,/EN*%
X136510000Y-127000000D03*
%TD*%
D11*
%TO.P,C5,1,1_1*%
%TO.N,/+3V3*%
X132550000Y-129000000D03*
%TO.P,C5,2,2_2*%
%TO.N,/GND*%
X134450000Y-129000000D03*
%TD*%
%TO.P,C8,1,1_1*%
%TO.N,/+3V3*%
X101550000Y-133000000D03*
%TO.P,C8,2,2_2*%
%TO.N,/GND*%
X103450000Y-133000000D03*
%TD*%
D26*
%TO.P,J1,SH,SHIELD_SH*%
%TO.N,/GND*%
X115320000Y-141050000D03*
D27*
X115320000Y-136870000D03*
D26*
X106680000Y-141050000D03*
D27*
X106680000Y-136870000D03*
%TD*%
D28*
%TO.N,/GND*%
X123750000Y-139330800D03*
X104132600Y-131888700D03*
X104500000Y-120713600D03*
X130520000Y-140636300D03*
X116927100Y-122200000D03*
X110313200Y-127549500D03*
X139112800Y-139865100D03*
X119187500Y-131188600D03*
%TO.N,/SW*%
X110167100Y-131183300D03*
X104872700Y-130062600D03*
%TO.N,/VCOM*%
X131908200Y-136949100D03*
X138893400Y-137062900D03*
%TO.N,/BOOT*%
X139473100Y-121891800D03*
X116915700Y-123253100D03*
%TO.N,/PREVGL*%
X131106400Y-136994400D03*
X138731500Y-136250700D03*
X113482000Y-124832000D03*
%TO.N,/+3V3*%
X101503200Y-127301700D03*
X132710000Y-136796200D03*
X127250000Y-136990500D03*
X141045600Y-138095600D03*
X134886500Y-122841500D03*
X135490000Y-126177800D03*
X117517600Y-128926200D03*
X115082800Y-122809500D03*
X106107600Y-124351800D03*
%TO.N,/VSH1*%
X142268200Y-132743200D03*
X129750000Y-136987500D03*
%TO.N,/BTN*%
X115093400Y-127026800D03*
X108490000Y-123152500D03*
%TO.N,/LED_GATE*%
X115082800Y-128390500D03*
X109040500Y-130530500D03*
%TO.N,/EPD_BUSY*%
X124099000Y-136986000D03*
X117735400Y-130031500D03*
X129000000Y-129014200D03*
%TO.N,/EPD_RST*%
X124750000Y-139331200D03*
X116917200Y-130090500D03*
%TO.N,/EPD_CS*%
X125750000Y-139306500D03*
X121307700Y-132048600D03*
%TO.N,/EPD_MOSI*%
X126750000Y-139305700D03*
X121332500Y-133363700D03*
%TO.N,/EPD_SCK*%
X126287500Y-136961600D03*
X117364500Y-135222800D03*
%TO.N,/USB_DN*%
X125063300Y-132309400D03*
%TO.N,/USB_DP*%
X123000000Y-130064300D03*
X125952000Y-133391900D03*
%TO.N,/GDR*%
X101990000Y-130836900D03*
X120720200Y-136977800D03*
%TO.N,/VSH2*%
X133961900Y-132729000D03*
X117330700Y-136376000D03*
%TO.N,/VDD*%
X129622700Y-136175800D03*
X137313700Y-134654800D03*
%TO.N,/PREVGH*%
X110225000Y-132829600D03*
X129710700Y-139318600D03*
X137178700Y-136253700D03*
%TO.N,/+5V*%
X120740700Y-142000000D03*
X131042600Y-142907400D03*
%TO.N,/VBUS*%
X115068800Y-133350800D03*
X121353200Y-140953200D03*
X109197000Y-137203600D03*
%TO.N,/CC1*%
X104800500Y-136000000D03*
X112589600Y-134287900D03*
%TO.N,/USB_DN_C*%
X111750000Y-137883400D03*
X118885400Y-135202100D03*
%TO.N,/USB_DN_E*%
X125895300Y-132464100D03*
X115083000Y-134535100D03*
%TO.N,/USB_DP_E*%
X122608500Y-132490500D03*
X117862500Y-131236500D03*
%TD*%
%TO.N,/EN*%
D29*
X130968100Y-121350000D02*
X130701700Y-121350000D01*
X135490000Y-125050000D02*
X136510000Y-126070000D01*
X139698300Y-130026700D02*
X138725000Y-131000000D01*
X140450000Y-127200000D02*
X139698300Y-127200000D01*
X139498300Y-127000000D02*
X139698300Y-127200000D01*
X136510000Y-126070000D02*
X136510000Y-127000000D01*
X139698300Y-127200000D02*
X139698300Y-130026700D01*
D30*
X133738800Y-124120700D02*
X134560700Y-124120700D01*
X134560700Y-124120700D02*
X135490000Y-125050000D01*
D29*
X130000000Y-121350000D02*
X130701700Y-121350000D01*
X133738800Y-124120700D02*
X130968100Y-121350000D01*
X136510000Y-127000000D02*
X139498300Y-127000000D01*
X140450000Y-127200000D02*
X144550000Y-127200000D01*
%TO.N,/GND*%
X106825000Y-129000000D02*
X108350000Y-129000000D01*
X128525000Y-120300000D02*
X128950000Y-120300000D01*
X110313200Y-127549500D02*
X109800500Y-127549500D01*
X103010000Y-129000000D02*
X103010000Y-132560000D01*
X144550000Y-128800000D02*
X145301700Y-128800000D01*
X118750000Y-120300000D02*
X117900000Y-120300000D01*
X103010000Y-132560000D02*
X103450000Y-133000000D01*
X116000000Y-120300000D02*
X116000000Y-121350000D01*
X140275000Y-131000000D02*
X140275000Y-131776100D01*
X130000000Y-123900000D02*
X130701700Y-123900000D01*
X123000000Y-125650000D02*
X124650000Y-125650000D01*
X115320000Y-136870000D02*
X115320000Y-135600000D01*
X128250000Y-136931300D02*
X128950000Y-136231300D01*
X123000000Y-120300000D02*
X123850000Y-120300000D01*
X108350000Y-129000000D02*
X109350000Y-128000000D01*
X121350000Y-129851700D02*
X120524400Y-129851700D01*
X116701700Y-122200000D02*
X116701700Y-121350000D01*
X136334700Y-129645300D02*
X136334700Y-132700500D01*
X115401700Y-135600000D02*
X115320000Y-135600000D01*
X134775000Y-134300000D02*
X134775000Y-135500000D01*
X135574500Y-132700500D02*
X134775000Y-133500000D01*
X144550000Y-123800000D02*
X140450000Y-123800000D01*
X141175000Y-133500000D02*
X141175000Y-135500000D01*
X121300000Y-120300000D02*
X120450000Y-120300000D01*
X128950000Y-134300000D02*
X130000000Y-134300000D01*
D30*
X140130000Y-131776100D02*
X138873900Y-131776100D01*
D29*
X141175000Y-132676200D02*
X141175000Y-133500000D01*
X126400000Y-120300000D02*
X127250000Y-120300000D01*
X123000000Y-127300000D02*
X121350000Y-127300000D01*
X144550000Y-123800000D02*
X145301700Y-123800000D01*
X123000000Y-128950000D02*
X124650000Y-128950000D01*
X123000000Y-125650000D02*
X121350000Y-125650000D01*
X130000000Y-134300000D02*
X130701700Y-134300000D01*
X140450000Y-128800000D02*
X140450000Y-129601700D01*
X117900000Y-120300000D02*
X117050000Y-120300000D01*
X142575000Y-135500000D02*
X144575000Y-133500000D01*
X129784600Y-140636300D02*
X130520000Y-140636300D01*
X128950000Y-120300000D02*
X130000000Y-120300000D01*
X140275000Y-131776100D02*
X140130000Y-131776100D01*
X128100000Y-120300000D02*
X128525000Y-120300000D01*
X123000000Y-120300000D02*
X122150000Y-120300000D01*
X130701700Y-123900000D02*
X130701700Y-123050000D01*
X123850000Y-120300000D02*
X124700000Y-120300000D01*
X140275000Y-129776700D02*
X140450000Y-129601700D01*
X116000000Y-121350000D02*
X116701700Y-121350000D01*
X121350000Y-127300000D02*
X121350000Y-128950000D01*
X140275000Y-131776100D02*
X140275000Y-131776200D01*
X104132600Y-131888700D02*
X103450000Y-132571300D01*
X137975000Y-132700500D02*
X137975000Y-133500000D01*
X140275000Y-131776200D02*
X141175000Y-132676200D01*
X116927100Y-122200000D02*
X116701700Y-122200000D01*
X145301700Y-128800000D02*
X145301700Y-123800000D01*
X128525000Y-120300000D02*
X128525000Y-122700200D01*
X135095300Y-129645300D02*
X134450000Y-129000000D01*
X103450000Y-132571300D02*
X103450000Y-133000000D01*
X116000000Y-135001700D02*
X115401700Y-135600000D01*
X125550000Y-120300000D02*
X126400000Y-120300000D01*
X130000000Y-123050000D02*
X130701700Y-123050000D01*
X123000000Y-125650000D02*
X123000000Y-120300000D01*
X123000000Y-128950000D02*
X121350000Y-128950000D01*
X141175000Y-135500000D02*
X142575000Y-135500000D01*
D30*
X138873900Y-131776100D02*
X137975000Y-132675000D01*
D29*
X123750000Y-138150000D02*
X123750000Y-139330800D01*
X121350000Y-127300000D02*
X121350000Y-125650000D01*
X134775000Y-134300000D02*
X130701700Y-134300000D01*
X117050000Y-120300000D02*
X116000000Y-120300000D01*
X127250000Y-120300000D02*
X128100000Y-120300000D01*
X116000000Y-122200000D02*
X116701700Y-122200000D01*
D30*
X130000000Y-123050000D02*
X129323300Y-123050000D01*
D29*
X109800500Y-127549500D02*
X109350000Y-128000000D01*
X136980000Y-129000000D02*
X136334700Y-129645300D01*
X121350000Y-128950000D02*
X121350000Y-129851700D01*
X123000000Y-127300000D02*
X124650000Y-127300000D01*
X128250000Y-138150000D02*
X128250000Y-136931300D01*
X124700000Y-120300000D02*
X125550000Y-120300000D01*
D30*
X128525000Y-122700200D02*
X128973500Y-122700200D01*
D29*
X120450000Y-120300000D02*
X119600000Y-120300000D01*
X120524400Y-129851700D02*
X119187500Y-131188600D01*
X112375000Y-135600000D02*
X111775000Y-135000000D01*
X137975000Y-132675000D02*
X137975000Y-132700500D01*
X128250000Y-139101700D02*
X129784600Y-140636300D01*
X128250000Y-138150000D02*
X128250000Y-139101700D01*
X128950000Y-136231300D02*
X128950000Y-134300000D01*
D30*
X128973500Y-122700200D02*
X129323300Y-123050000D01*
D29*
X140450000Y-128800000D02*
X144550000Y-128800000D01*
X134775000Y-133500000D02*
X134775000Y-134300000D01*
X119600000Y-120300000D02*
X118750000Y-120300000D01*
X137975000Y-132700500D02*
X136334700Y-132700500D01*
X115320000Y-135600000D02*
X112375000Y-135600000D01*
X136334700Y-132700500D02*
X135574500Y-132700500D01*
X136334700Y-129645300D02*
X135095300Y-129645300D01*
X122150000Y-120300000D02*
X121300000Y-120300000D01*
X116000000Y-134300000D02*
X116000000Y-135001700D01*
X140275000Y-131000000D02*
X140275000Y-129776700D01*
%TO.N,/SW*%
X104872700Y-130062600D02*
X104537800Y-130062600D01*
X103600000Y-128569900D02*
X103580700Y-128589200D01*
X103600000Y-123348300D02*
X103600100Y-123348300D01*
X105763200Y-123349800D02*
X105763200Y-123514600D01*
X103601600Y-123349800D02*
X105763200Y-123349800D01*
D30*
X103580700Y-128589200D02*
X103580700Y-129105500D01*
D29*
X105763200Y-123514600D02*
X105998600Y-123750000D01*
X106887500Y-124072900D02*
X106887500Y-125000000D01*
X103600100Y-123348300D02*
X103601600Y-123349800D01*
X106530900Y-123716300D02*
X106887500Y-124072900D01*
X105998600Y-123750000D02*
X106497200Y-123750000D01*
X104872700Y-130062600D02*
X104872700Y-132822700D01*
D30*
X103580700Y-129105500D02*
X104251200Y-129776000D01*
D29*
X104872700Y-132822700D02*
X105050000Y-133000000D01*
X106497200Y-123750000D02*
X106530900Y-123716300D01*
X112650000Y-132000000D02*
X111833300Y-131183300D01*
X103600000Y-125000000D02*
X103600000Y-123348300D01*
X104537800Y-130062600D02*
X104251200Y-129776000D01*
X111833300Y-131183300D02*
X110167100Y-131183300D01*
X103600000Y-125000000D02*
X103600000Y-128569900D01*
%TO.N,/FLY*%
X106950000Y-133000000D02*
X106950000Y-131765300D01*
X110715300Y-128000000D02*
X112650000Y-128000000D01*
X112650000Y-127300000D02*
X109350000Y-124000000D01*
X106950000Y-131765300D02*
X110715300Y-128000000D01*
X112650000Y-128000000D02*
X112650000Y-127300000D01*
%TO.N,/VCOM*%
X131750000Y-137107300D02*
X131908200Y-136949100D01*
X131750000Y-138150000D02*
X131750000Y-137107300D01*
X139625000Y-135500000D02*
X139625000Y-136331300D01*
X139625000Y-136331300D02*
X138893400Y-137062900D01*
%TO.N,/BOOT*%
X140074200Y-122200000D02*
X139698300Y-122200000D01*
X139698300Y-122117000D02*
X139698300Y-122200000D01*
X144550000Y-122200000D02*
X140450000Y-122200000D01*
X138774200Y-123500000D02*
X136510000Y-123500000D01*
X140450000Y-122200000D02*
X140074200Y-122200000D01*
X139473100Y-121891800D02*
X139698300Y-122117000D01*
X116915700Y-123253100D02*
X116701700Y-123467100D01*
X116000000Y-123900000D02*
X116701700Y-123900000D01*
X116701700Y-123467100D02*
X116701700Y-123900000D01*
X140074200Y-122200000D02*
X138774200Y-123500000D01*
%TO.N,/PREVGL*%
X137980800Y-135500000D02*
X137975000Y-135500000D01*
X131250000Y-138150000D02*
X131250000Y-137138000D01*
X138731500Y-136250700D02*
X137980800Y-135500000D01*
X131250000Y-137138000D02*
X131106400Y-136994400D01*
X112650000Y-124000000D02*
X113482000Y-124832000D01*
%TO.N,/+3V3*%
X135651600Y-134273400D02*
X135651600Y-135976100D01*
X135651600Y-135976100D02*
X137771100Y-138095600D01*
X101503200Y-127301700D02*
X101503200Y-126754900D01*
X135490000Y-126177800D02*
X135490000Y-127000000D01*
X137771100Y-138095600D02*
X141045600Y-138095600D01*
X101503200Y-126754900D02*
X101400000Y-126651700D01*
X101400000Y-125000000D02*
X101400000Y-126651700D01*
X134886500Y-122841500D02*
X135490000Y-123445000D01*
X127250000Y-136990500D02*
X127250000Y-137198300D01*
X101342000Y-127462900D02*
X101342000Y-132792000D01*
X135490000Y-123445000D02*
X135490000Y-123500000D01*
X135490000Y-127000000D02*
X135490000Y-128470000D01*
X136425000Y-133500000D02*
X135651600Y-134273400D01*
D30*
X115082800Y-122809500D02*
X115323300Y-123050000D01*
D29*
X127250000Y-137198300D02*
X127750000Y-137198300D01*
X127250000Y-138150000D02*
X127250000Y-137198300D01*
X135490000Y-128470000D02*
X136020000Y-129000000D01*
X127750000Y-138150000D02*
X127750000Y-137198300D01*
X135490000Y-127000000D02*
X134550000Y-127000000D01*
X134550000Y-127000000D02*
X132550000Y-129000000D01*
X101342000Y-132792000D02*
X101550000Y-133000000D01*
D30*
X116000000Y-123050000D02*
X115323300Y-123050000D01*
D29*
X101503200Y-127301700D02*
X101342000Y-127462900D01*
%TO.N,/VSH1*%
X129750000Y-138150000D02*
X129750000Y-136987500D01*
X143025000Y-133500000D02*
X142268200Y-132743200D01*
%TO.N,/BTN*%
D30*
X115323300Y-127256700D02*
X115093400Y-127026800D01*
X116000000Y-127300000D02*
X115323300Y-127300000D01*
X115323300Y-127300000D02*
X115323300Y-127256700D01*
%TO.N,/LED_GATE*%
X116000000Y-128150000D02*
X115323300Y-128150000D01*
X115082800Y-128390500D02*
X115323300Y-128150000D01*
%TO.N,/EPD_BUSY*%
D29*
X117053700Y-129349800D02*
X117735400Y-130031500D01*
D30*
X116676700Y-129172400D02*
X116676700Y-129000000D01*
D29*
X116854100Y-129349800D02*
X117053700Y-129349800D01*
X124250000Y-137137000D02*
X124099000Y-136986000D01*
X124250000Y-138150000D02*
X124250000Y-137137000D01*
D30*
X116000000Y-129000000D02*
X116676700Y-129000000D01*
X116854100Y-129349800D02*
X116676700Y-129172400D01*
%TO.N,/EPD_RST*%
D29*
X124750000Y-139331200D02*
X124750000Y-138150000D01*
D30*
X116917200Y-130090500D02*
X116676700Y-129850000D01*
X116000000Y-129850000D02*
X116676700Y-129850000D01*
%TO.N,/EPD_CS*%
X116000000Y-132400000D02*
X116676700Y-132400000D01*
D29*
X125750000Y-139306500D02*
X125750000Y-138150000D01*
D30*
X116676700Y-132400000D02*
X117028100Y-132048600D01*
X117028100Y-132048600D02*
X121307700Y-132048600D01*
%TO.N,/EPD_MOSI*%
D29*
X116000000Y-133250000D02*
X116701700Y-133250000D01*
X121332500Y-133363700D02*
X116815400Y-133363700D01*
X116815400Y-133363700D02*
X116701700Y-133250000D01*
X126750000Y-138150000D02*
X126750000Y-139305700D01*
%TO.N,/EPD_SCK*%
X126287500Y-136961600D02*
X126250000Y-136999100D01*
X117050000Y-135001700D02*
X117143400Y-135001700D01*
X126250000Y-136999100D02*
X126250000Y-138150000D01*
X117143400Y-135001700D02*
X117364500Y-135222800D01*
X117050000Y-134300000D02*
X117050000Y-135001700D01*
%TO.N,/EPD_DC*%
X119600000Y-134300000D02*
X119600000Y-135001700D01*
X125250000Y-137648300D02*
X125250000Y-138150000D01*
D30*
X125250000Y-137448100D02*
X125250000Y-137648300D01*
D29*
X125000200Y-137198300D02*
X125000200Y-136992800D01*
X123009100Y-135001700D02*
X119600000Y-135001700D01*
D30*
X125000200Y-137198300D02*
X125250000Y-137448100D01*
D29*
X125000200Y-136992800D02*
X123009100Y-135001700D01*
%TO.N,/USB_DN*%
X124288900Y-132309400D02*
X125063300Y-132309400D01*
X123000000Y-133598300D02*
X124288900Y-132309400D01*
X123000000Y-134300000D02*
X123000000Y-133598300D01*
%TO.N,/USB_DP*%
X125765000Y-133576500D02*
X125949600Y-133391900D01*
X123850000Y-133949600D02*
X123850000Y-134300000D01*
D30*
X125741700Y-133599800D02*
X124199800Y-133599800D01*
X125765000Y-133576500D02*
X125741700Y-133599800D01*
D29*
X124199800Y-133599800D02*
X123850000Y-133949600D01*
X125949600Y-133391900D02*
X125952000Y-133391900D01*
%TO.N,/VSL*%
X133311700Y-135586700D02*
X133225000Y-135500000D01*
X132235500Y-139100200D02*
X133311700Y-138024000D01*
X133311700Y-138024000D02*
X133311700Y-135586700D01*
D30*
X132235500Y-139100200D02*
X130799800Y-139100200D01*
D29*
X130750000Y-139050400D02*
X130750000Y-138150000D01*
X130799800Y-139100200D02*
X130750000Y-139050400D01*
%TO.N,/GDR*%
X101990000Y-130836900D02*
X101990000Y-129000000D01*
X101990000Y-128489500D02*
X102100200Y-128379300D01*
X106329200Y-122946600D02*
X107699400Y-124316800D01*
X106303400Y-125540900D02*
X105112500Y-124350000D01*
X107699400Y-124316800D02*
X107699400Y-125254500D01*
X120750000Y-137007600D02*
X120720200Y-136977800D01*
X102100200Y-123349800D02*
X102503400Y-122946600D01*
D30*
X102100200Y-128379300D02*
X102100200Y-123349800D01*
D29*
X107699400Y-125254500D02*
X107413000Y-125540900D01*
X102503400Y-122946600D02*
X106329200Y-122946600D01*
X107413000Y-125540900D02*
X106303400Y-125540900D01*
X120750000Y-138150000D02*
X120750000Y-137007600D01*
X101990000Y-129000000D02*
X101990000Y-128489500D01*
%TO.N,/RESE*%
X105175000Y-129000000D02*
X105175000Y-125712500D01*
X106000000Y-129825000D02*
X106000000Y-133567800D01*
X121250000Y-138150000D02*
X121250000Y-139101700D01*
X108414200Y-135982000D02*
X110774200Y-135982000D01*
X106000000Y-133567800D02*
X108414200Y-135982000D01*
X113893900Y-139101700D02*
X121250000Y-139101700D01*
X110774200Y-135982000D02*
X113893900Y-139101700D01*
X105175000Y-125712500D02*
X105112500Y-125650000D01*
X105175000Y-129000000D02*
X106000000Y-129825000D01*
%TO.N,/VSH2*%
X133225000Y-133500000D02*
X133961900Y-132763100D01*
X133961900Y-132763100D02*
X133961900Y-132729000D01*
X122250000Y-138150000D02*
X122250000Y-137198300D01*
X121427700Y-136376000D02*
X117330700Y-136376000D01*
X122250000Y-137198300D02*
X121427700Y-136376000D01*
%TO.N,/VDD*%
X137313700Y-134654800D02*
X138470200Y-134654800D01*
X128750000Y-138150000D02*
X128750000Y-137048500D01*
X128750000Y-137048500D02*
X129622700Y-136175800D01*
X138470200Y-134654800D02*
X139625000Y-133500000D01*
%TO.N,/PREVGH*%
X130033100Y-139318600D02*
X129710700Y-139318600D01*
X110225000Y-132829600D02*
X110225000Y-135000000D01*
X130250000Y-139101700D02*
X130033100Y-139318600D01*
X137178700Y-136253700D02*
X136425000Y-135500000D01*
X130250000Y-138150000D02*
X130250000Y-139101700D01*
X109350000Y-132000000D02*
X110179600Y-132829600D01*
X110179600Y-132829600D02*
X110225000Y-132829600D01*
%TD*%
M02*
