M48
; DRILL file KiCad 10.0.5 date 2026-08-10T15:38:10
; FORMAT={-:-/ absolute / metric / decimal}
; #@! TF.CreationDate,2026-08-10T15:38:10+02:00
; #@! TF.GenerationSoftware,Kicad,Pcbnew,10.0.5
; #@! TF.FileFunction,MixedPlating,1,4
FMAT,2
METRIC
; #@! TA.AperFunction,Plated,PTH,ViaDrill
T1C0.300
; #@! TA.AperFunction,Plated,PTH,ComponentDrill
T2C0.600
; #@! TA.AperFunction,NonPlated,NPTH,ComponentDrill
T3C0.650
; #@! TA.AperFunction,NonPlated,NPTH,ComponentDrill
T4C2.200
%
G90
G05
T1
X101.503Y-127.302
X101.99Y-130.837
X104.133Y-131.889
X104.5Y-120.714
X104.8Y-136.0
X104.873Y-130.063
X106.108Y-124.352
X108.49Y-123.152
X109.04Y-130.53
X109.197Y-137.204
X110.167Y-131.183
X110.225Y-132.83
X110.313Y-127.549
X111.75Y-137.883
X112.59Y-134.288
X113.482Y-124.832
X115.069Y-133.351
X115.083Y-122.809
X115.083Y-128.391
X115.083Y-134.535
X115.093Y-127.027
X116.916Y-123.253
X116.917Y-130.09
X116.927Y-122.2
X117.331Y-136.376
X117.364Y-135.223
X117.518Y-128.926
X117.735Y-130.031
X117.862Y-131.237
X118.885Y-135.202
X119.188Y-131.189
X120.72Y-136.978
X120.741Y-142.0
X121.308Y-132.049
X121.332Y-133.364
X121.353Y-140.953
X122.608Y-132.49
X123.0Y-130.064
X123.75Y-139.331
X124.099Y-136.986
X124.75Y-139.331
X125.063Y-132.309
X125.75Y-139.306
X125.895Y-132.464
X125.952Y-133.392
X126.287Y-136.962
X126.75Y-139.306
X127.25Y-136.99
X129.0Y-129.014
X129.623Y-136.176
X129.711Y-139.319
X129.75Y-136.987
X130.52Y-140.636
X131.043Y-142.907
X131.106Y-136.994
X131.908Y-136.949
X132.71Y-136.796
X133.962Y-132.729
X134.886Y-122.841
X135.49Y-126.178
X137.179Y-136.254
X137.314Y-134.655
X138.731Y-136.251
X138.893Y-137.063
X139.113Y-139.865
X139.473Y-121.892
X141.046Y-138.096
X142.268Y-132.743
T3
X108.11Y-137.4
X113.89Y-137.4
T4
X102.8Y-142.2
X143.2Y-142.2
T2
G00X106.68Y-137.42
M15
G01X106.68Y-136.32
M16
G05
G00X106.68Y-141.35
M15
G01X106.68Y-140.75
M16
G05
G00X115.32Y-137.42
M15
G01X115.32Y-136.32
M16
G05
G00X115.32Y-141.35
M15
G01X115.32Y-140.75
M16
G05
M30
